<?xml version="1.0" encoding="UTF-8"?>
<svg width="500px" height="126px" viewBox="0 0 500 126" version="1.1" xmlns="http://www.w3.org/2000/svg" xmlns:xlink="http://www.w3.org/1999/xlink">
    <!-- Generator: Sketch 50.2 (55047) - http://www.bohemiancoding.com/sketch -->
    <title>Florida State Parks Logo White</title>
    <desc>Created with Sketch.</desc>
    <defs>
        <polygon id="path-1" points="0 127.228916 499.965278 127.228916 499.965278 2.18833735 0 2.18833735"></polygon>
    </defs>
    <g id="Symbols" stroke="none" stroke-width="1" fill="none" fill-rule="evenodd">
        <g id="Header" transform="translate(0.000000, -50.000000)">
            <g id="Florida-State-Parks-Logo-White">
                <g transform="translate(0.000000, 48.000000)">
                    <polygon id="Fill-1" fill="#FFFFFF" points="182.293056 32.1595373 182.293056 39.6105253 195.017593 39.6105253 195.017593 49.4279711 182.293056 49.4279711 182.293056 66.9346699 170.693519 66.9346699 170.693519 22.3420916 196.318519 22.3420916 196.318519 32.1595373"></polygon>
                    <polygon id="Fill-2" fill="#FFFFFF" points="214.363657 57.1174554 228.271065 57.1174554 228.271065 66.9349012 202.76412 66.9349012 202.76412 22.3423229 214.363657 22.3423229"></polygon>
                    <g id="Group-24" transform="translate(0.000000, 0.125147)">
                        <path d="M241.876852,43.7429205 C241.876852,51.4321735 247.557407,57.0510651 254.481019,57.0510651 C261.406944,57.0510651 267.0875,51.4321735 267.0875,43.7429205 C267.0875,37.594294 261.406944,31.9730892 254.481019,31.9730892 C247.557407,31.9730892 241.876852,37.594294 241.876852,43.7429205 M279.156944,43.6850892 C279.156944,58.1151614 268.802778,68.2865349 254.481019,68.2865349 C240.161574,68.2865349 229.802778,58.1151614 229.802778,43.6850892 C229.802778,30.2011373 241.638426,20.7376193 254.481019,20.7376193 C267.323611,20.7376193 279.156944,30.2011373 279.156944,43.6850892" id="Fill-3" fill="#FFFFFF"></path>
                        <path d="M296.137037,42.2069205 L297.259722,42.2069205 C301.046759,42.2069205 305.308333,41.4944386 305.308333,36.6481735 C305.308333,31.7972819 301.046759,31.0871133 297.259722,31.0871133 L296.137037,31.0871133 L296.137037,42.2069205 Z M321.641667,66.8106795 L307.201852,66.8106795 L296.255093,49.6579084 L296.137037,49.6579084 L296.137037,66.8106795 L284.5375,66.8106795 L284.5375,22.215788 L301.875463,22.215788 C310.694907,22.215788 317.382407,26.4166554 317.382407,35.9356916 C317.382407,42.0866313 313.947222,47.4117398 307.616204,48.5336675 L321.641667,66.8106795 Z" id="Fill-5" fill="#FFFFFF"></path>
                        <mask id="mask-2" fill="white">
                            <use xlink:href="#path-1"></use>
                        </mask>
                        <g id="Clip-8"></g>
                        <polygon id="Fill-7" fill="#FFFFFF" mask="url(#mask-2)" points="324.770833 66.8090602 336.37037 66.8090602 336.37037 22.2164819 324.770833 22.2164819"></polygon>
                        <path d="M355.542361,56.9923084 L358.144213,56.9923084 C365.067824,56.9923084 370.98912,53.2055133 370.98912,44.5123084 C370.98912,36.526959 365.718287,32.0346217 358.264583,32.0346217 L355.542361,32.0346217 L355.542361,56.9923084 Z M343.942824,22.2171759 L360.394213,22.2171759 C372.822454,22.2171759 383.06088,31.9744771 383.06088,44.5123084 C383.06088,57.0501398 372.759954,66.8097542 360.394213,66.8097542 L343.942824,66.8097542 L343.942824,22.2171759 Z" id="Fill-9" fill="#FFFFFF" mask="url(#mask-2)"></path>
                        <path d="M406.165509,35.9967614 L406.045139,35.9967614 L401.253472,50.1908819 L410.899306,50.1908819 L406.165509,35.9967614 Z M398.056713,59.0622072 L394.980324,66.8092916 L382.672454,66.8092916 L399.834491,22.2167133 L412.496528,22.2167133 L429.304398,66.8092916 L416.934028,66.8092916 L414.033565,59.0622072 L398.056713,59.0622072 Z" id="Fill-10" fill="#FFFFFF" mask="url(#mask-2)"></path>
                        <path d="M191.708333,90.5592289 C189.93287,87.4849157 187.803241,85.7083373 184.013889,85.7083373 C180.048611,85.7083373 176.615741,88.549012 176.615741,92.6295904 C176.615741,96.4742169 180.581019,98.2461687 183.599537,99.6086747 L186.55787,100.911036 C192.358796,103.453301 197.270833,106.349494 197.270833,113.448867 C197.270833,121.256096 190.997685,127.228916 183.24537,127.228916 C176.085648,127.228916 170.759259,122.613976 169.337963,115.695036 L174.19213,114.334843 C174.842593,118.889639 178.333333,122.613976 183.127315,122.613976 C187.918981,122.613976 192.298611,118.945157 192.298611,113.923084 C192.298611,108.715952 188.217593,106.941687 184.074074,105.049446 L181.349537,103.867373 C176.143519,101.498602 171.645833,98.8383614 171.645833,92.4514699 C171.645833,85.5325301 177.50463,81.0957108 184.134259,81.0957108 C189.104167,81.0957108 193.305556,83.6402892 195.673611,88.0146506 L191.708333,90.5592289 Z" id="Fill-11" fill="#FFFFFF" mask="url(#mask-2)"></path>
                        <polygon id="Fill-12" fill="#FFFFFF" mask="url(#mask-2)" points="215.218056 126.45999 210.248148 126.45999 210.248148 86.4800386 199.475 86.4800386 199.475 81.867412 226.106944 81.867412 226.106944 86.4800386 215.218056 86.4800386"></polygon>
                        <path d="M242.792361,91.3295422 L235.158102,109.190169 L250.24838,109.190169 L242.792361,91.3295422 Z M233.146528,113.802795 L227.759954,126.460916 L222.315509,126.460916 L242.910417,79.7355181 L262.972917,126.460916 L257.468287,126.460916 L252.197454,113.802795 L233.146528,113.802795 Z" id="Fill-13" fill="#FFFFFF" mask="url(#mask-2)"></path>
                        <polygon id="Fill-14" fill="#FFFFFF" mask="url(#mask-2)" points="274.921759 126.45999 269.949537 126.45999 269.949537 86.4800386 259.178704 86.4800386 259.178704 81.867412 285.808333 81.867412 285.808333 86.4800386 274.921759 86.4800386"></polygon>
                        <polygon id="Fill-15" fill="#FFFFFF" mask="url(#mask-2)" points="290.894907 81.8664867 314.031481 81.8664867 314.031481 86.4791133 295.8625 86.4791133 295.8625 99.7271133 313.501389 99.7271133 313.501389 104.33974 295.8625 104.33974 295.8625 121.846439 314.031481 121.846439 314.031481 126.459065 290.894907 126.459065"></polygon>
                        <path d="M345.686343,102.328829 L349.001157,102.328829 C354.505787,102.328829 359.179398,100.67254 359.179398,94.2810217 C359.179398,87.0104675 353.320602,86.4784193 347.521991,86.4784193 L345.686343,86.4784193 L345.686343,102.328829 Z M345.686343,126.460684 L340.716435,126.460684 L340.716435,81.8657928 L348.049769,81.8657928 C351.90162,81.8657928 355.862269,81.9837687 359.121528,84.2322506 C362.434028,86.5385639 364.15162,90.4410217 364.15162,94.4036241 C364.15162,98.0122988 362.670139,101.678805 359.890046,103.985118 C356.871528,106.469552 353.02662,106.941455 349.297454,106.941455 L345.686343,106.941455 L345.686343,126.460684 Z" id="Fill-16" fill="#FFFFFF" mask="url(#mask-2)"></path>
                        <path d="M382.079167,91.3295422 L374.444907,109.190169 L389.535185,109.190169 L382.079167,91.3295422 Z M372.433333,113.802795 L367.046759,126.460916 L361.602315,126.460916 L382.197222,79.7355181 L402.259722,126.460916 L396.755093,126.460916 L391.484259,113.802795 L372.433333,113.802795 Z" id="Fill-17" fill="#FFFFFF" mask="url(#mask-2)"></path>
                        <path d="M412.074537,102.507412 L413.613889,102.507412 C419.234259,102.507412 424.91713,101.441002 424.91713,94.5220627 C424.91713,87.1890506 419.53287,86.4788819 413.556019,86.4788819 L412.074537,86.4788819 L412.074537,102.507412 Z M412.074537,126.458834 L407.10463,126.458834 L407.10463,81.8662554 L413.556019,81.8662554 C422.016667,81.8662554 429.887037,84.1124241 429.887037,94.1704482 C429.887037,101.02693 425.567593,105.877822 418.701852,106.470014 L432.905556,126.458834 L426.808333,126.458834 L413.317593,106.884087 L412.074537,106.884087 L412.074537,126.458834 Z" id="Fill-18" fill="#FFFFFF" mask="url(#mask-2)"></path>
                        <polygon id="Fill-19" fill="#FFFFFF" mask="url(#mask-2)" points="463.140741 81.8664867 469.828241 81.8664867 448.879167 102.625619 470.538889 126.459065 463.673148 126.459065 445.388426 105.996029 444.14537 107.238246 444.14537 126.459065 439.173148 126.459065 439.173148 81.8664867 444.14537 81.8664867 444.14537 100.96933"></polygon>
                        <path d="M494.401852,90.5592289 C492.626389,87.4849157 490.496759,85.7083373 486.709722,85.7083373 C482.744444,85.7083373 479.309259,88.549012 479.309259,92.6295904 C479.309259,96.4742169 483.276852,98.2461687 486.29537,99.6086747 L489.253704,100.911036 C495.052315,103.453301 499.964352,106.349494 499.964352,113.448867 C499.964352,121.256096 493.691204,127.228916 485.941204,127.228916 C478.779167,127.228916 473.452778,122.613976 472.033796,115.695036 L476.887963,114.334843 C477.538426,118.889639 481.029167,122.613976 485.820833,122.613976 C490.614815,122.613976 494.994444,118.945157 494.994444,113.923084 C494.994444,108.715952 490.911111,106.941687 486.767593,105.049446 L484.04537,103.867373 C478.837037,101.498602 474.341667,98.8383614 474.341667,92.4514699 C474.341667,85.5325301 480.200463,81.0957108 486.830093,81.0957108 C491.8,81.0957108 495.996759,83.6402892 498.36713,88.0146506 L494.401852,90.5592289 Z" id="Fill-20" fill="#FFFFFF" mask="url(#mask-2)"></path>
                        <path d="M63.487037,118.151248 C62.6606481,117.209754 61.8898148,116.205802 61.2439815,115.132453 C60.9037037,114.565706 60.8296296,113.883296 61.0287037,113.256405 C61.8550926,110.647055 62.4615741,108.030766 62.7902778,105.298814 C63.162963,102.240694 62.8759259,99.0183325 61.4199074,96.3048867 C53.8018519,106.224116 44.2185185,110.7072 42.287963,112.33573 C41.7578704,112.782188 41.2185185,113.247152 40.9083333,113.86479 C40.5148148,114.642043 40.537963,115.555778 40.5703704,116.427875 L40.7532407,121.563296 C40.7740741,122.192501 41.3574074,122.62508 41.9777778,122.507104 C42.8990741,122.33361 43.9453704,122.516357 44.6375,123.039152 C45.674537,123.816405 46.1027778,125.195104 46.0819444,126.488212 C46.0796296,126.712598 46.0611111,126.953176 45.9175926,127.12667 C45.8851852,127.165995 45.850463,127.198381 45.8111111,127.228453 L73.537963,127.228453 C73.3111111,126.955489 73.0402778,126.714911 72.7671296,126.488212 C69.5935185,123.790959 66.2300926,121.283393 63.487037,118.151248" id="Fill-21" fill="#E8C738" mask="url(#mask-2)"></path>
                        <path d="M113.684954,125.508781 C112.865509,121.701166 112.768287,117.810275 112.708102,113.905504 C112.002083,115.163913 106.346991,118.215094 104.48588,119.043239 L97.9418981,121.962564 C97.5460648,122.138371 97.1988426,122.27948 96.9210648,122.214708 C96.518287,122.122178 96.23125,121.594757 96.0946759,121.287094 C95.2659722,119.39948 96.3099537,117.838034 97.7729167,116.019817 C99.0275463,114.462998 100.92338,113.394275 103.407176,112.84372 C104.562269,112.589263 107.666435,111.319287 108.16875,109.790227 C108.684954,107.009696 103.152546,100.911961 102.23125,97.1945639 C98.8840278,97.6387084 95.1826389,97.7219855 95.1571759,97.6340819 C89.5831019,98.2679133 84.9141204,95.6169253 79.4280093,94.2752386 C79.8631944,101.214998 71.9581019,110.086323 71.8238426,110.36854 C71.6641204,110.710901 71.4696759,111.034757 71.3006944,111.370178 C70.2590278,113.44054 70.205787,115.992058 71.2219907,118.085552 C71.7914352,119.256058 72.8655093,120.056443 74.0668981,120.560733 C75.1340278,121.01413 75.9511574,122.267913 77.1594907,122.765263 C78.6247685,123.371335 80.3770833,122.765263 81.8400463,123.373648 C82.3377315,123.581841 82.7729167,123.919576 83.1386574,124.317455 C83.7451389,124.979046 84.1803241,125.839576 84.0275463,126.78107 C84.0043981,126.933745 83.9581019,127.086419 83.8979167,127.227528 L114.483565,127.227528 C114.451157,127.199769 114.421065,127.174323 114.393287,127.146564 C113.971991,126.713986 113.812269,126.09866 113.684954,125.508781" id="Fill-22" fill="#E8C738" mask="url(#mask-2)"></path>
                        <path d="M78.5738426,2.18810602 C35.1780093,2.18810602 -0.000231481481,37.3449253 -0.000231481481,80.7137928 C-0.000231481481,98.1279614 5.67800926,114.207383 15.2729167,127.228684 L36.3793981,127.228684 C36.3261574,127.119961 36.29375,126.995046 36.29375,126.872443 C36.5090278,113.13172 34.79375,113.552733 34.6803241,109.449022 C34.6618056,108.824443 34.91875,108.220684 35.3701389,107.788106 C36.9743056,106.256733 40.8030093,102.419046 41.7520833,101.232347 C46.9488426,94.7274795 46.1270833,87.8733108 45.6965278,87.070612 C43.1456019,92.1829012 40.3886574,97.2651181 37.5668981,102.231672 C26.6641204,121.406227 9.9974537,100.443528 9.93726852,98.3222747 C9.92337963,97.8619373 9.93032407,97.3784675 10.1502315,96.980588 C10.4326389,96.4762988 11.0159722,96.2010217 11.5900463,96.1455036 C12.893287,96.0229012 14.0969907,96.8811181 14.9604167,97.8642506 C15.8238426,98.8520096 16.6664352,99.8443952 17.4974537,100.855287 C32.4372685,119.023576 39.7914352,82.2636723 41.2752315,78.1252627 C42.2451389,75.4187566 43.3215278,72.5595759 45.5969907,70.7991904 C46.2150463,70.320347 46.9025463,69.9432867 47.5854167,69.5639133 C50.0321759,68.2152867 52.4789352,66.864347 54.9233796,65.5157205 C55.4094907,65.2496964 55.8956019,64.981359 56.4118056,64.7824193 C56.9881944,64.560347 57.5946759,64.4284916 58.194213,64.2989494 C60.3909722,63.8247325 62.6039352,63.3412627 64.8469907,63.3412627 C70.85625,63.3412627 83.7381944,67.1188048 89.0460648,67.3108048 C92.0668981,67.4195277 99.3076389,67.7688289 102.175694,66.8180819 C104.846991,65.9367325 106.812269,65.5828048 109.624769,65.5712386 C112.893287,65.5596723 115.201157,66.087094 118.411806,66.709359 C121.300694,67.266853 126.853935,64.7962988 130.434954,63.7160096 C130.967361,63.5540819 131.527546,63.3088771 132.143287,63.0474795 C134.511343,60.2484434 136.647917,57.9860819 136.85625,61.1205398 C136.872454,61.3634313 137.124769,61.5392386 137.346991,61.652588 C137.465046,61.7127325 137.599306,61.7474313 137.733565,61.7566843 C138.187269,61.7936964 138.640972,61.8307084 139.096991,61.8677205 C139.233565,61.8168289 139.36088,61.6965398 139.460417,61.5878169 C143.35162,57.2967325 143.03912,60.903094 142.444213,63.6096 C142.242824,64.5279614 142.800694,65.5180337 143.636343,65.9806843 C144.224306,66.306853 144.678009,66.8435277 144.874769,67.486612 C145.291435,68.8398651 144.992824,70.338853 145.430324,71.6897928 C145.763657,72.7261301 146.502083,73.5866602 146.928009,74.590612 C147.358565,75.5922506 147.372454,76.9408771 146.488194,77.5816482 C146.316898,77.7065639 146.11088,77.8037205 145.997454,77.9864675 C145.888657,78.1622747 145.886343,78.3820337 145.844676,78.5809735 C145.719676,79.1824193 142.35625,82.5482024 139.515972,80.0128771 C139.198843,79.7306602 138.965046,79.3651663 138.698843,79.0320578 C137.863194,77.9957205 133.022917,77.5145639 130.41875,79.9319133 C130.117824,80.2141301 129.86088,80.5402988 129.592361,80.852588 C129.587731,80.8549012 129.585417,80.8572145 129.583102,80.861841 C129.342361,81.2851663 129.171065,81.7293108 129.182639,82.2104675 C129.388657,91.3455036 125.245139,89.4717687 123.66875,95.7892627 C123.377083,96.9551422 118.430324,110.422901 118.430324,120.476299 C118.430324,124.600829 123.059954,121.149455 125.115509,122.572106 C126.411806,123.469648 127.041435,126.363528 125.42338,127.228684 L141.874769,127.228684 C151.469676,114.207383 157.147917,98.1279614 157.147917,80.7137928 C157.147917,37.3449253 121.969676,2.18810602 78.5738426,2.18810602" id="Fill-23" fill="#E8C738" mask="url(#mask-2)"></path>
                    </g>
                </g>
            </g>
        </g>
    </g>
</svg>